<?xml version="1.0" standalone="no"?>
<!DOCTYPE svg PUBLIC "-//W3C//DTD SVG 20010904//EN" "http://www.w3.org/TR/2001/REC-SVG-20010904/DTD/svg10.dtd">
<svg xmlns="http://www.w3.org/2000/svg" version="1.0" width="2004.000000pt" height="2004.000000pt" viewBox="0 0 2004.000000 2004.000000" preserveAspectRatio="xMidYMid meet">
  <g transform="translate(0.000000,2004.000000) scale(0.100000,-0.100000)" fill="#000000" stroke="none">
    <path d="M9435 19769 c-1588 -101 -3052 -620 -4306 -1529 -570 -413 -1112 -927 -1554 -1475 -579 -717 -1054 -1584 -1356 -2474 -904 -2665 -395 -5540 1369 -7735 325 -403 803 -880 1217 -1212 1065 -855 2361 -1441 3705 -1673 787 -136 1623 -157 2400 -60 794 99 1540 306 2285 634 156 68 598 291 676 340 100 62 144 161 120 269 -16 72 -56 125 -122 161 -45 24 -65 29 -120 28 -64 0 -73 -4 -205 -75 -1346 -732 -2849 -1039 -4364 -893 -1118 109 -2248 480 -3210 1055 -1820 1088 -3117 2924 -3544 5015 -105 519 -149 963 -149 1510 0 349 9 525 44 840 248 2242 1465 4256 3325 5502 745 499 1522 844 2389 1061 1571 394 3196 285 4706 -313 159 -63 198 -75 246 -75 93 1 178 52 219 133 42 80 25 201 -39 274 -36 41 -65 56 -233 124 -752 301 -1525 482 -2364 555 -218 18 -922 27 -1135 13z"/>
    <path d="M9685 18193 c-1394 -47 -2737 -540 -3840 -1412 -190 -150 -316 -262 -513 -456 -264 -259 -421 -437 -633 -717 -773 -1026 -1220 -2230 -1310 -3533 -17 -249 -6 -838 20 -1075 137 -1259 590 -2377 1363 -3371 1026 -1318 2570 -2200 4253 -2429 515 -70 1063 -78 1570 -24 1323 141 2565 685 3605 1578 139 119 512 492 631 631 674 787 1139 1679 1393 2675 312 1220 265 2494 -135 3683 -377 1121 -1082 2162 -1970 2908 -1121 943 -2485 1472 -3964 1539 -207 9 -278 10 -470 3z m785 -287 c1333 -137 2524 -642 3515 -1490 180 -154 497 -471 651 -651 852 -996 1355 -2164 1500 -3485 22 -197 30 -793 15 -1016 -86 -1221 -518 -2390 -1240 -3354 -242 -324 -669 -776 -971 -1027 -709 -590 -1531 -1022 -2395 -1258 -567 -154 -1056 -219 -1650 -218 -535 0 -1004 59 -1517 189 -941 239 -1762 656 -2508 1277 -180 150 -600 569 -744 742 -853 1028 -1330 2166 -1463 3495 -24 247 -24 853 0 1100 52 518 152 992 308 1454 573 1704 1832 3064 3489 3769 643 273 1304 433 2020 487 178 13 809 4 990 -14z"/>
    <path d="M9964 16418 c-3 -4 -78 -8 -168 -8 -312 0 -1131 -96 -1465 -171 -307 -70 -865 -243 -1135 -351 -176 -71 -611 -263 -643 -284 -13 -8 -23 -23 -23 -34 0 -28 250 -510 268 -517 18 -8 23 -5 247 100 586 276 1226 464 1950 571 315 47 457 58 822 63 627 9 1119 -40 1714 -172 434 -97 686 -183 1271 -434 170 -73 316 -131 325 -129 22 4 272 481 273 519 0 29 36 10 -390 201 -589 264 -1290 468 -1900 552 -289 40 -405 51 -1038 95 -57 3 -106 3 -108 -1z"/>
    <path d="M9795 15173 c-587 -37 -800 -67 -1211 -168 -411 -101 -610 -166 -917 -296 -188 -81 -337 -156 -344 -176 -6 -15 233 -501 261 -530 8 -9 36 0 116 39 644 307 1252 456 2065 508 236 15 386 12 631 -10 375 -35 513 -60 865 -154 409 -110 547 -158 875 -306 111 -50 187 -79 199 -76 14 4 57 78 148 258 70 139 128 258 128 264 -1 20 -27 35 -177 106 -232 109 -728 285 -1009 358 -350 91 -693 140 -1229 175 -218 14 -285 16 -401 8z"/>
    <path d="M9770 13937 c-3 -2 -90 -12 -195 -21 -412 -36 -738 -119 -1193 -302 -271 -109 -272 -110 -272 -131 0 -18 231 -476 258 -511 l18 -23 60 26 c365 163 735 270 1119 321 181 25 617 25 800 1 366 -49 707 -144 1063 -297 67 -29 124 -51 126 -49 21 22 256 502 256 522 0 24 -11 32 -90 72 -480 241 -1078 379 -1695 392 -137 3 -252 3 -255 0z"/>
    <path d="M11020 12486 c-440 -191 -752 -463 -989 -861 -34 -58 -67 -105 -71 -105 -10 0 -10 0 -215 179 -144 125 -261 211 -375 273 -79 43 -296 131 -312 126 -15 -5 -87 -205 -87 -244 -1 -38 6 -44 84 -74 154 -60 220 -100 428 -259 146 -112 154 -124 116 -171 -78 -96 -109 -184 -109 -307 0 -48 5 -108 11 -132 29 -128 126 -249 247 -308 71 -35 83 -38 183 -41 88 -4 121 0 177 17 272 82 405 360 303 631 -11 30 -46 88 -76 127 -30 40 -55 82 -55 94 0 47 155 262 277 386 153 155 285 246 527 366 88 43 162 80 164 81 4 5 -70 231 -80 244 -17 20 -69 13 -148 -22z"/>
    <path d="M7445 12283 c-318 -15 -513 -71 -677 -193 -79 -60 -135 -130 -182 -230 -76 -160 -93 -303 -106 -860 -5 -228 -14 -443 -20 -478 -37 -219 -145 -395 -283 -460 -53 -25 -148 -48 -229 -57 l-58 -6 0 -323 0 -323 84 -12 c260 -36 398 -149 456 -374 31 -124 41 -242 50 -622 16 -652 56 -843 212 -1010 168 -180 389 -250 821 -262 l227 -6 0 327 0 326 -88 0 c-207 0 -331 34 -392 108 -56 68 -62 101 -71 407 -22 735 -61 957 -207 1173 -51 74 -147 169 -220 219 -32 20 -61 40 -65 44 -5 4 24 31 65 62 180 136 303 311 351 502 43 169 65 411 76 835 7 252 12 326 26 370 42 136 109 170 378 192 l147 11 0 324 0 323 -117 -2 c-65 -1 -145 -3 -178 -5z"/>
    <path d="M12220 11968 l0 -324 153 -12 c372 -29 405 -74 407 -562 1 -462 48 -823 130 -998 60 -129 172 -257 307 -352 l62 -44 -52 -34 c-88 -59 -148 -114 -209 -190 -169 -213 -220 -460 -238 -1162 -9 -358 -17 -400 -88 -473 -58 -59 -213 -97 -399 -97 l-73 0 0 -326 0 -327 233 6 c323 7 503 43 667 134 84 47 206 169 247 248 83 159 100 276 113 760 11 446 23 606 55 733 63 247 208 368 478 397 l67 7 0 324 0 323 -47 6 c-279 36 -416 135 -487 353 -35 104 -46 218 -56 562 -23 780 -40 881 -181 1058 -62 78 -185 177 -264 212 -128 58 -305 86 -617 96 l-208 7 0 -325z"/>
    <path d="M11190 10803 c-256 -25 -451 -92 -642 -219 -265 -176 -476 -455 -544 -718 -9 -33 -21 -71 -28 -84 -11 -21 -14 -14 -39 74 -122 435 -491 783 -966 912 -89 24 -111 26 -316 26 -208 1 -226 -1 -330 -27 -362 -91 -586 -316 -662 -667 -14 -66 -18 -126 -17 -265 1 -161 3 -190 27 -277 102 -382 344 -615 834 -804 65 -25 121 -48 125 -52 3 -4 -23 -45 -58 -92 -129 -171 -184 -327 -184 -525 0 -501 324 -849 810 -872 258 -12 496 61 725 221 44 31 90 56 104 56 13 0 65 -26 115 -59 241 -155 414 -214 631 -213 142 0 232 21 361 81 241 113 383 285 446 539 32 127 32 354 0 467 -30 105 -90 226 -149 299 -27 32 -57 69 -68 82 -26 32 -13 43 90 78 109 38 263 114 360 177 94 62 265 229 320 314 148 227 197 542 134 858 -56 282 -209 472 -478 594 -170 78 -407 116 -601 96z"/>
    <path d="M1115 2410 c-501 -42 -866 -302 -1019 -728 -54 -150 -70 -259 -70 -472 0 -216 17 -325 74 -482 141 -386 466 -636 913 -702 185 -28 451 -19 647 20 85 18 251 70 275 88 14 10 11 34 -26 216 -23 113 -42 206 -43 207 -2 2 -35 -8 -75 -22 -318 -108 -651 -96 -880 32 -82 46 -187 151 -228 228 -126 240 -119 628 14 854 77 129 238 241 413 286 102 26 316 31 440 10 89 -14 249 -57 301 -79 14 -6 21 21 53 181 21 103 40 198 43 211 4 19 -2 26 -53 48 -181 80 -521 125 -779 104z"/>
    <path d="M3250 2410 c-409 -34 -752 -258 -928 -605 -35 -70 -89 -236 -108 -335 -24 -130 -25 -390 0 -514 76 -388 284 -671 608 -829 169 -82 332 -117 549 -117 240 0 388 32 575 125 423 211 662 675 614 1196 -28 306 -135 549 -325 745 -194 199 -432 307 -732 333 -127 12 -126 12 -253 1z m279 -465 c158 -38 298 -150 371 -298 71 -145 84 -213 84 -437 0 -169 -3 -206 -22 -275 -36 -133 -85 -220 -171 -306 -126 -126 -264 -177 -451 -165 -159 10 -273 59 -376 163 -147 148 -220 408 -193 691 24 260 116 442 279 550 55 37 149 75 210 85 60 10 210 5 269 -8z"/>
    <path d="M10930 2410 c-574 -47 -955 -364 -1072 -890 -20 -91 -23 -132 -23 -305 0 -151 5 -221 18 -287 102 -504 445 -823 972 -904 154 -24 470 -14 632 20 113 24 288 79 297 94 3 5 -72 409 -78 419 -1 1 -51 -14 -112 -32 -396 -120 -760 -68 -969 139 -86 84 -135 173 -167 304 -31 124 -31 380 0 495 66 240 229 400 480 469 65 18 105 22 257 22 163 0 190 -2 287 -26 58 -15 132 -36 164 -47 32 -12 58 -20 59 -18 1 1 19 88 39 192 20 105 39 198 42 208 4 14 -7 23 -52 43 -177 78 -524 125 -774 104z"/>
    <path d="M16625 2410 c-501 -42 -866 -302 -1019 -728 -54 -150 -70 -259 -70 -472 0 -164 4 -211 22 -298 101 -465 391 -758 862 -869 191 -45 522 -43 750 3 85 18 251 71 275 88 14 10 11 34 -26 216 -23 113 -42 206 -43 207 -2 2 -35 -8 -75 -22 -318 -108 -651 -96 -880 32 -82 46 -187 151 -228 228 -126 240 -119 628 14 854 77 129 238 241 413 286 102 26 316 31 440 10 89 -14 249 -57 301 -79 14 -6 21 21 53 181 21 103 40 198 43 211 4 19 -2 26 -53 48 -181 80 -521 125 -779 104z"/>
    <path d="M4910 1211 l0 -1161 428 0 c516 0 611 10 832 81 260 84 474 229 615 417 378 503 260 1221 -258 1570 -150 102 -332 176 -542 223 -94 21 -130 22 -587 26 l-488 5 0 -1161z m994 680 c44 -12 118 -40 165 -62 70 -34 102 -58 171 -128 138 -138 190 -274 190 -491 0 -212 -57 -360 -189 -491 -155 -154 -376 -226 -661 -217 l-95 3 -3 695 c-1 382 0 701 3 709 9 22 316 9 419 -18z"/>
    <path d="M7330 1210 l0 -1160 730 0 730 0 0 225 0 225 -442 2 -443 3 0 245 0 245 418 3 417 2 0 225 0 225 -417 2 -418 3 0 230 0 230 438 3 437 2 0 225 0 225 -725 0 -725 0 0 -1160z"/>
    <path d="M12130 1210 l0 -1160 285 0 285 0 0 470 0 470 425 0 425 0 0 -470 0 -470 285 0 285 0 0 1160 0 1160 -285 0 -285 0 0 -455 0 -455 -425 0 -425 0 0 455 0 455 -285 0 -285 0 0 -1160z"/>
    <path d="M14590 1210 l0 -1160 290 0 290 0 0 1160 0 1160 -290 0 -290 0 0 -1160z"/>
    <path d="M18094 1219 c-236 -634 -431 -1156 -432 -1161 -2 -4 126 -7 294 -6 l297 3 70 223 71 222 445 -2 445 -3 71 -220 71 -220 297 -3 297 -2 -23 62 c-13 35 -208 557 -432 1161 l-409 1097 -316 0 -317 0 -429 -1151z m895 219 c78 -256 141 -471 141 -477 0 -13 -576 -16 -583 -3 -6 11 287 962 295 954 3 -4 70 -217 147 -474z"/>
  </g>
</svg>
